<svg width="347" height="96" viewBox="0 0 347 96" fill="none" xmlns="http://www.w3.org/2000/svg">
<g clip-path="url(#clip0)">
<path d="M0.0607418 84.1432C178.211 96.8395 302.159 86.2249 341.865 79.3306" stroke="#00B392" stroke-width="5"/>
<path d="M5.248 62.32V14.896H22.784C28.16 14.896 32.2773 16.0267 35.136 18.288C38.0373 20.5493 39.488 23.7707 39.488 27.952V28.912C39.488 31.0453 39.0827 32.8587 38.272 34.352C37.504 35.8027 36.416 36.9973 35.008 37.936C36.9707 38.832 38.528 40.112 39.68 41.776C40.832 43.44 41.408 45.5733 41.408 48.176V49.072C41.408 53.296 39.9787 56.56 37.12 58.864C34.2613 61.168 30.1013 62.32 24.64 62.32H5.248ZM23.424 23.088H15.488V34.48H23.424C25.3867 34.48 26.816 33.968 27.712 32.944C28.6507 31.92 29.12 30.5547 29.12 28.848C29.12 27.056 28.6507 25.648 27.712 24.624C26.816 23.6 25.3867 23.088 23.424 23.088ZM25.152 42.416H15.488V54.128H25.152C27.1147 54.128 28.5867 53.6373 29.568 52.656C30.5493 51.632 31.04 50.16 31.04 48.24C31.04 44.3573 29.0773 42.416 25.152 42.416ZM60.8245 63.088C56.7712 63.088 53.6565 61.7867 51.4805 59.184C49.3045 56.5813 48.2165 52.6133 48.2165 47.28V26.928H58.4565V47.792C58.4565 49.6693 58.9898 51.1627 60.0565 52.272C61.1232 53.3813 62.5525 53.936 64.3445 53.936C66.1792 53.936 67.6725 53.36 68.8245 52.208C69.9765 51.056 70.5525 49.4987 70.5525 47.536V26.928H80.7925V62H72.6645V53.808C71.2138 59.9947 67.4165 63.088 61.2725 63.088H60.8245ZM105.979 63.216C102.949 63.216 100.304 62.7253 98.0425 61.744C95.8238 60.72 93.9678 59.3547 92.4745 57.648C90.9812 55.9413 89.8718 54.0213 89.1465 51.888C88.4212 49.712 88.0585 47.472 88.0585 45.168V43.952C88.0585 40.752 88.7198 37.7653 90.0425 34.992C91.4078 32.2187 93.4132 29.9787 96.0585 28.272C98.7465 26.5653 102.032 25.712 105.915 25.712C109.072 25.712 111.867 26.3307 114.299 27.568C116.731 28.7627 118.672 30.448 120.123 32.624C121.573 34.8 122.384 37.296 122.555 40.112H112.507C112.336 38.5333 111.696 37.2107 110.587 36.144C109.477 35.0347 107.92 34.48 105.915 34.48C103.312 34.48 101.392 35.4187 100.155 37.296C98.9172 39.1307 98.2985 41.5627 98.2985 44.592C98.2985 47.4507 98.8745 49.8187 100.027 51.696C101.221 53.5307 103.205 54.448 105.979 54.448C108.027 54.448 109.627 53.9147 110.779 52.848C111.931 51.7813 112.613 50.3733 112.827 48.624H122.811C122.64 51.5253 121.808 54.0853 120.315 56.304C118.864 58.48 116.88 60.1867 114.363 61.424C111.888 62.6187 109.093 63.216 105.979 63.216ZM129.36 62V15.28H139.6V43.568L152.336 26.928H163.088L151.568 41.904L165.584 62H154.064L142.992 45.616H139.6V62H129.36ZM187.067 63.216C182.843 63.216 179.259 62.5547 176.315 61.232C173.413 59.9093 171.216 58.0747 169.723 55.728C168.272 53.3813 167.547 50.6933 167.547 47.664H177.723C177.723 49.456 178.448 51.0347 179.899 52.4C181.392 53.7227 183.781 54.384 187.067 54.384C189.968 54.384 192.187 53.8293 193.723 52.72C195.259 51.568 196.027 50.096 196.027 48.304C196.027 46.8107 195.387 45.6373 194.107 44.784C192.827 43.888 190.757 43.312 187.899 43.056L184.378 42.736C179.728 42.352 176.016 40.9227 173.243 38.448C170.469 35.9307 169.083 32.5813 169.083 28.4C169.083 25.4133 169.787 22.832 171.195 20.656C172.645 18.48 174.651 16.816 177.211 15.664C179.771 14.4693 182.8 13.872 186.299 13.872C189.968 13.872 193.104 14.512 195.707 15.792C198.352 17.072 200.379 18.864 201.787 21.168C203.195 23.4293 203.899 26.0747 203.899 29.104H193.659C193.659 27.3973 193.04 25.904 191.803 24.624C190.565 23.344 188.731 22.704 186.299 22.704C183.952 22.704 182.203 23.28 181.051 24.432C179.899 25.5413 179.323 26.864 179.323 28.4C179.323 29.7227 179.771 30.8747 180.667 31.856C181.605 32.8373 183.163 33.4133 185.339 33.584L188.923 33.904C192.336 34.2027 195.344 34.9493 197.947 36.144C200.549 37.296 202.576 38.896 204.027 40.944C205.52 42.9493 206.267 45.4027 206.267 48.304C206.267 51.2907 205.477 53.9147 203.899 56.176C202.363 58.3947 200.165 60.1227 197.307 61.36C194.448 62.5973 191.035 63.216 187.067 63.216ZM228.858 62.448C225.317 62.448 222.458 62.0213 220.282 61.168C218.106 60.272 216.506 58.8 215.482 56.752C214.501 54.6613 214.01 51.8453 214.01 48.304V34.416H208.698V26.928H214.01V17.456H223.546V26.928H233.786V34.416H223.546V48.688C223.546 50.352 223.973 51.632 224.826 52.528C225.722 53.3813 226.981 53.808 228.602 53.808H233.786V62.448H228.858ZM257.635 63.216C253.539 63.216 250.04 62.384 247.139 60.72C244.28 59.056 242.104 56.88 240.611 54.192C239.118 51.4613 238.371 48.496 238.371 45.296V43.824C238.371 40.5387 239.139 37.5307 240.675 34.8C242.254 32.0267 244.472 29.8293 247.331 28.208C250.232 26.544 253.667 25.712 257.635 25.712C261.603 25.712 265.038 26.544 267.939 28.208C270.84 29.8293 273.059 32.0267 274.595 34.8C276.174 37.5307 276.963 40.5387 276.963 43.824V45.296C276.963 48.496 276.195 51.4613 274.659 54.192C273.166 56.88 270.99 59.056 268.131 60.72C265.272 62.384 261.774 63.216 257.635 63.216ZM257.635 54.576C260.579 54.576 262.819 53.6373 264.355 51.76C265.934 49.84 266.723 47.4507 266.723 44.592C266.723 41.648 265.912 39.216 264.291 37.296C262.712 35.3333 260.494 34.352 257.635 34.352C254.776 34.352 252.558 35.3333 250.979 37.296C249.4 39.216 248.611 41.648 248.611 44.592C248.611 47.4507 249.379 49.84 250.915 51.76C252.451 53.6373 254.691 54.576 257.635 54.576ZM284.11 62V26.928H292.238V38.832C292.622 34.864 293.838 31.8133 295.885 29.68C297.976 27.5467 300.814 26.48 304.398 26.48H305.742V35.312H303.182C300.323 35.312 298.126 36.08 296.59 37.616C295.096 39.152 294.35 41.328 294.35 44.144V62H284.11ZM326.924 63.216C323.937 63.216 321.292 62.704 318.988 61.68C316.726 60.656 314.828 59.2907 313.292 57.584C311.756 55.8347 310.604 53.8933 309.836 51.76C309.068 49.584 308.684 47.3653 308.684 45.104V43.824C308.684 41.52 309.068 39.28 309.836 37.104C310.604 34.928 311.756 32.9867 313.292 31.28C314.828 29.5733 316.684 28.2293 318.86 27.248C321.078 26.224 323.638 25.712 326.54 25.712C330.294 25.712 333.452 26.5653 336.012 28.272C338.614 29.936 340.598 32.1333 341.964 34.864C343.329 37.5947 344.012 40.5387 344.012 43.696V47.152H318.348C318.689 49.5413 319.542 51.44 320.908 52.848C322.316 54.2133 324.321 54.896 326.924 54.896C328.758 54.896 330.273 54.5547 331.468 53.872C332.705 53.1467 333.537 52.2293 333.964 51.12H343.372C342.604 54.704 340.748 57.6267 337.804 59.888C334.902 62.1067 331.276 63.216 326.924 63.216ZM326.54 34.032C324.321 34.032 322.508 34.672 321.1 35.952C319.734 37.1893 318.86 38.9813 318.476 41.328H334.22C333.878 38.9813 333.046 37.1893 331.724 35.952C330.444 34.672 328.716 34.032 326.54 34.032Z" fill="#001833"/>
</g>
<defs>
<clipPath id="clip0">
<rect width="347" height="96" fill="white"/>
</clipPath>
</defs>
</svg>
